HIERARCHY
ROOT hip
{
	OFFSET 0.000000 0.000000 0.000000 
	CHANNELS 6 Xposition Yposition Zposition Xrotation Zrotation Yrotation
	JOINT abdomen
	{
		OFFSET 0.000000 3.402643 0.000000 
		CHANNELS 3 Xrotation Zrotation Yrotation
		JOINT chest
		{
			OFFSET 0.000000 8.438565 -0.680529 
			CHANNELS 3 Xrotation Zrotation Yrotation
			JOINT neck
			{
				OFFSET 0.000000 10.207942 -0.272212 
				CHANNELS 3 Xrotation Zrotation Yrotation
				JOINT head
				{
					OFFSET 0.000000 3.130431 0.000000 
					CHANNELS 3 Xrotation Zrotation Yrotation
					End Site
					{
						OFFSET 0.000000 3.130435 0.000000 
					}
				}
			}
			JOINT lCollar
			{
				OFFSET 3.470700 6.669187 -0.816635 
				CHANNELS 3 Yrotation Zrotation Xrotation
				JOINT lShldr
				{
					OFFSET 3.198488 0.000000 0.000000 
					CHANNELS 3 Zrotation Yrotation Xrotation
					JOINT lForeArm
					{
						OFFSET 10.139888 0.000000 0.000000 
						CHANNELS 3 Yrotation Zrotation Xrotation
						JOINT lHand
						{
							OFFSET 8.370511 0.000000 0.000000 
							CHANNELS 3 Zrotation Yrotation Xrotation
							End Site
							{
								OFFSET 4.083176 0.000000 0.000000 
							}
						}
					}
				}
			}
			JOINT rCollar
			{
				OFFSET -3.470700 6.669187 -0.816635 
				CHANNELS 3 Yrotation Zrotation Xrotation
				JOINT rShldr
				{
					OFFSET -3.198488 0.000000 0.000000 
					CHANNELS 3 Zrotation Yrotation Xrotation
					JOINT rForeArm
					{
						OFFSET -10.139888 0.000000 0.000000 
						CHANNELS 3 Yrotation Zrotation Xrotation
						JOINT rHand
						{
							OFFSET -8.370511 0.000000 0.000000 
							CHANNELS 3 Zrotation Yrotation Xrotation
							End Site
							{
								OFFSET -4.083176 0.000000 0.000000 
							}
						}
					}
				}
			}
		}
	}
	JOINT lThigh
	{
		OFFSET 5.308129 -1.633274 1.361059 
		CHANNELS 3 Xrotation Zrotation Yrotation
		JOINT lShin
		{
			OFFSET -2.041588 -20.007561 0.000000 
			CHANNELS 3 Xrotation Zrotation Yrotation
			JOINT lFoot
			{
				OFFSET 0.000000 -19.190928 -1.224953 
				CHANNELS 3 Xrotation Yrotation Zrotation
				End Site
				{
					OFFSET 0.000000 -2.449906 4.627600 
				}
			}
		}
	}
	JOINT rThigh
	{
		OFFSET -5.308129 -1.633274 1.361059 
		CHANNELS 3 Xrotation Zrotation Yrotation
		JOINT rShin
		{
			OFFSET 2.041588 -20.007561 0.000000 
			CHANNELS 3 Xrotation Zrotation Yrotation
			JOINT rFoot
			{
				OFFSET 0.000000 -19.190928 -1.224953 
				CHANNELS 3 Xrotation Yrotation Zrotation
				End Site
				{
					OFFSET 0.000000 -2.449906 4.627600 
				}
			}
		}
	}
}
MOTION
Frames: 16
Frame Time: 0.033333
-0.021071 43.926258 -0.059623 2.080612 1.297972 92.098145 0.000000 0.000000 0.000000 2.891999 1.765328 6.778878 40.984344 -2.113092 -0.375345 -23.318295 -1.193651 2.110543 -16.506857 5.372683 25.000000 -88.856140 17.079386 -1.917054 -54.734570 19.201576 58.128147 -14.691414 -7.693995 -58.108673 -8.732806 0.009588 24.643959 58.031116 1.751205 64.672020 37.547237 -40.140091 37.373531 42.094311 -1.036994 -81.793419 16.649834 19.355883 24.641798 35.462463 9.392299 0.661301 30.527178 -0.424050 0.479662 4.936082 3.414614 2.050490 35.075302 4.078938 3.090625 1.023399 -9.471212 3.717135 
-0.049835 44.048832 -0.153759 2.226912 1.014858 91.943932 0.000000 0.000000 0.000000 2.804052 1.755709 6.775692 40.840199 -2.183454 -0.375542 -22.958370 -1.306490 2.003402 -16.633938 5.434783 25.000000 -88.801048 17.307127 -1.942693 -54.897705 18.831902 57.943130 -14.423329 -7.516627 -58.206921 -8.697326 -0.128575 24.620394 58.335068 1.904156 64.836861 37.211571 -40.388855 36.884937 41.608051 -0.911760 -81.717644 15.571211 17.468298 23.716988 37.272404 11.060539 0.952765 29.601183 -3.462965 -0.665610 5.360769 3.486099 2.072244 33.762142 3.420613 2.800192 1.526404 -9.407450 3.370302 
-0.089103 44.173424 -0.241697 2.275517 0.604991 91.772194 0.000000 0.000000 0.000000 2.569663 1.824337 6.800880 40.733265 -2.202211 -0.383691 -22.608196 -1.411615 1.900052 -16.702387 5.656168 25.000000 -88.950584 17.387617 -1.845417 -54.795074 18.596937 57.533039 -14.157887 -7.280626 -58.323383 -8.653027 -0.282012 24.594107 58.619587 2.056145 64.992500 36.977734 -40.576874 36.514301 41.189285 -0.708444 -81.645828 14.247985 15.615277 22.889950 39.072098 12.478578 1.161521 28.818989 -6.418221 -1.505112 5.593508 3.612077 2.100529 32.507984 2.806004 2.551510 2.111676 -9.324544 3.181838 
-0.141260 44.294075 -0.305189 2.080080 0.068314 91.428276 0.000000 0.000000 0.000000 2.189009 2.127354 6.878479 40.619492 -2.298636 -0.390348 -22.335850 -1.491065 1.860351 -16.528913 6.112329 25.000000 -89.306190 17.359970 -1.589021 -54.546001 18.458607 57.079777 -13.904955 -6.986413 -58.448879 -8.475135 -0.549877 24.553064 58.999249 2.252261 65.193794 36.784809 -40.797462 36.444771 40.905865 -0.397281 -81.572174 12.722285 13.992964 22.204872 40.884125 13.519348 1.320226 28.267506 -9.421332 -2.241647 5.588791 4.067621 2.238810 31.313251 2.083730 2.284048 2.728851 -9.092803 3.213696 
-0.212107 44.401100 -0.390498 2.031411 -0.722202 91.302391 0.000000 0.000000 0.000000 1.544144 2.235517 6.916051 40.529865 -2.255902 -0.380629 -22.230585 -1.626904 1.830180 -16.672842 6.403336 25.000000 -89.568817 17.571728 -1.387511 -54.696095 18.372414 56.935947 -13.880057 -6.653012 -58.517750 -8.519689 -0.657089 24.539499 59.188610 2.360101 65.294121 36.777893 -40.994576 36.438866 40.789818 -0.524819 -81.572357 10.657781 12.047654 21.426212 42.249657 15.168248 1.622436 26.465654 -12.531257 -1.145529 5.329592 4.236506 2.297154 30.116985 1.615425 2.066670 3.377249 -9.004219 3.257165 
-0.286735 44.492382 -0.476864 2.031914 -1.463923 91.129478 0.000000 0.000000 0.000000 0.957799 2.294602 6.943009 40.441727 -2.253235 -0.380080 -22.123276 -1.637117 1.900475 -16.696526 6.829137 25.000000 -89.951340 17.679600 -1.117514 -54.771667 18.370726 56.890221 -13.955498 -6.499838 -58.501854 -8.475722 -0.868623 24.505619 59.494186 2.474218 65.460152 36.845928 -41.301716 36.823162 41.004322 -0.650711 -81.612732 8.483861 9.725022 20.515207 43.522179 17.131107 2.004909 24.606457 -15.170333 -0.631637 5.121961 4.390549 2.329980 28.946655 1.103052 1.860793 3.973087 -8.979812 3.171191 
-0.360806 44.575771 -0.544534 1.885996 -2.069192 90.751884 0.000000 0.000000 0.000000 0.508292 2.490137 7.004909 40.318508 -2.357989 -0.391956 -22.013512 -1.496068 2.115623 -16.555706 7.181351 25.000000 -90.324631 17.797701 -0.844444 -54.617889 18.545406 56.509056 -14.031051 -6.571476 -58.438641 -8.289529 -1.200490 24.457779 59.883808 2.661335 65.671310 36.965919 -41.503597 37.191616 41.034466 -0.855647 -81.620026 6.325809 7.538123 19.698669 44.680779 18.593634 2.285752 23.177364 -17.071331 -0.501453 5.007452 4.724474 2.440240 27.858002 0.605542 1.653582 4.549705 -8.913645 2.922828 
-0.428478 44.654251 -0.591788 1.593289 -2.479511 90.204140 0.000000 0.000000 0.000000 0.283557 2.861293 7.084937 40.171871 -2.602050 -0.408978 -21.922476 -1.278713 2.404098 -16.226372 7.479346 25.000000 -90.695244 17.867001 -0.580931 -54.244301 18.754061 55.907867 -14.082790 -6.739843 -58.356236 -7.969876 -1.560517 24.413395 60.243435 2.866422 65.862991 37.141403 -41.578945 37.410385 40.939102 -1.227206 -81.638268 4.389770 5.737501 19.069914 45.490261 19.354229 2.414858 22.204168 -18.082834 -0.345248 5.066421 5.222652 2.587606 26.801807 0.127620 1.442685 5.086683 -8.782287 2.580514 
-0.481528 44.729641 -0.624001 1.221968 -2.606830 89.582695 0.000000 0.000000 0.000000 0.371729 3.349539 7.199987 40.004074 -3.000261 -0.432452 -21.920408 -1.110469 2.617439 -15.639682 7.901514 25.000000 -91.066406 17.769964 -0.333578 -53.788658 18.725321 55.577854 -14.100321 -6.789460 -58.316895 -7.506441 -1.733256 24.415056 60.383823 2.981491 65.935684 37.359596 -41.619198 37.383236 41.107212 -1.870941 -81.721947 2.975326 4.567359 18.652430 45.712631 19.581491 2.462606 21.336189 -18.355742 0.016448 5.505487 5.808156 2.752713 25.680607 -0.282121 1.243224 5.620693 -8.681714 2.053982 
-0.551594 44.779995 -0.646565 0.840980 -2.978196 88.998825 0.000000 0.000000 0.000000 0.185962 3.828104 7.317726 39.909359 -3.437486 -0.466296 -21.869799 -0.942695 2.839737 -15.177206 7.785715 25.000000 -90.998505 17.939686 -0.366148 -53.677849 18.771313 55.812290 -14.310431 -6.935188 -58.183937 -7.070937 -2.042953 24.394611 60.613098 3.062410 66.064857 37.621777 -41.724255 37.351185 41.390221 -2.250547 -81.795654 1.111446 3.472315 18.275463 45.459045 19.747463 2.513852 20.176214 -18.641987 0.987993 5.497024 6.356334 2.918957 24.857281 -0.609528 1.088398 6.083482 -8.565599 1.578763 
-0.592768 44.854107 -0.669448 0.557350 -2.890488 88.516365 0.000000 0.000000 0.000000 0.460208 4.179553 7.387681 39.892086 -3.809669 -0.486573 -21.906748 -0.689915 3.004168 -14.782980 7.540436 25.000000 -90.873978 18.131836 -0.437850 -53.466618 18.883425 55.541302 -14.607865 -6.879249 -58.113518 -6.671465 -2.319529 24.375036 60.829182 3.220644 66.173538 37.776001 -41.783260 37.500389 41.767647 -2.034211 -81.821968 -0.458371 2.016278 17.781912 44.621254 20.224415 2.670790 19.108513 -19.113306 2.398586 6.040813 6.685153 2.997451 23.947445 -0.749864 0.981670 6.622647 -8.314810 1.399327 
-0.628245 44.921814 -0.694193 0.459504 -2.724522 88.161316 0.000000 0.000000 0.000000 0.763866 4.296494 7.411317 39.932568 -4.133072 -0.516415 -21.953650 -0.319558 3.128113 -14.451027 7.307168 25.000000 -90.747223 18.284983 -0.509507 -53.252224 18.988594 55.245972 -14.908128 -6.754896 -58.080929 -6.351809 -2.555069 24.365540 61.017105 3.357767 66.264297 37.909328 -41.858723 37.756676 42.163883 -1.544591 -81.826729 -1.957635 0.560523 17.286348 43.568153 20.678156 2.824741 18.137957 -19.546329 3.968606 6.643926 6.673665 2.987840 23.084530 -0.603342 0.932035 7.179359 -8.051225 1.406023 
-0.673590 44.962471 -0.721446 0.606174 -2.763517 87.978149 0.000000 0.000000 0.000000 0.832250 4.140190 7.375092 39.990490 -4.400712 -0.536230 -21.992283 0.134497 3.231020 -14.205139 7.169932 25.000000 -90.655533 18.367855 -0.581066 -53.120140 19.044130 55.229603 -15.137965 -6.666636 -58.043610 -6.120668 -2.714540 24.367508 61.131493 3.403136 66.328545 38.100288 -41.997795 38.070221 42.531525 -1.045514 -81.824501 -3.553864 -0.566520 16.899576 42.684898 20.789961 2.914804 17.122391 -19.780254 5.461431 6.911950 6.238451 2.842540 22.371000 -0.130650 0.963127 7.673995 -7.866684 1.473024 
-0.700472 45.005131 -0.745585 0.928725 -2.646137 87.984062 0.000000 0.000000 0.000000 0.978647 3.739690 7.281135 40.161312 -4.451663 -0.536081 -22.080790 0.369530 3.296359 -14.124721 6.909713 25.000000 -90.507584 18.482922 -0.678884 -53.014267 19.223158 55.111134 -15.202535 -6.532452 -58.058781 -5.977463 -2.592801 24.389944 60.949303 3.354076 66.226944 38.477123 -42.152931 38.663754 43.035618 -0.429194 -81.830040 -5.154465 -1.445741 16.601049 42.106316 20.583956 2.888168 16.452013 -19.817286 6.758453 7.322595 5.662950 2.666323 21.715700 0.318680 1.015840 8.173275 -7.730977 2.013255 
-0.744443 45.021832 -0.731032 1.075348 -2.626491 87.811653 0.000000 0.000000 0.000000 1.066460 3.515018 7.224072 40.305607 -4.670872 -0.556663 -22.081186 0.461911 3.319668 -13.806230 6.702663 25.000000 -90.315216 18.668711 -0.802535 -53.078518 19.268356 55.286900 -15.085546 -6.273520 -58.145210 -5.665385 -2.531279 24.415947 60.872868 3.330137 66.170616 38.850323 -42.437550 39.613098 43.559921 0.382077 -81.794960 -7.238608 -1.671354 16.450947 41.586910 19.948622 2.781939 16.497242 -19.572853 7.932357 7.440744 5.448790 2.604734 21.371391 0.513778 1.015021 8.519036 -7.541779 2.508002 
-0.791842 45.027725 -0.695642 1.124237 -2.636212 87.565079 0.000000 0.000000 0.000000 1.125025 3.397784 7.196054 40.446381 -4.955360 -0.582717 -22.071585 0.495555 3.348648 -13.353302 6.518323 25.000000 -90.104309 18.865202 -0.942621 -53.184223 19.196814 55.484188 -14.954330 -6.121492 -58.203102 -5.273082 -2.472972 24.452080 60.805527 3.316697 66.133423 39.094482 -42.650532 40.242264 43.910137 0.978036 -81.765022 -9.072849 -1.398727 16.442158 41.021225 19.070339 2.586345 16.769592 -19.199244 8.865510 7.376809 5.435445 2.605604 21.292351 0.539554 1.025667 8.739665 -7.447632 3.076095 
